<svg width="36" height="37" viewBox="0 0 36 37" fill="none" xmlns="http://www.w3.org/2000/svg">
<g filter="url(#filter0_d_122_496)">
<path d="M10.5 19.2188C12.83 19.2188 14.7188 17.33 14.7188 15C14.7188 12.67 12.83 10.7812 10.5 10.7812C8.17005 10.7812 6.28125 12.67 6.28125 15C6.28125 17.33 8.17005 19.2188 10.5 19.2188Z" stroke="#F2F2F2" stroke-width="2.8125" stroke-linecap="round" stroke-linejoin="round"/>
<path d="M25.5 26.7188C27.83 26.7188 29.7188 24.83 29.7188 22.5C29.7188 20.17 27.83 18.2812 25.5 18.2812C23.17 18.2812 21.2812 20.17 21.2812 22.5C21.2812 24.83 23.17 26.7188 25.5 26.7188Z" stroke="#F2F2F2" stroke-width="2.8125" stroke-linecap="round" stroke-linejoin="round"/>
<path d="M25.5 11.7188C27.83 11.7188 29.7188 9.82995 29.7188 7.5C29.7188 5.17005 27.83 3.28125 25.5 3.28125C23.17 3.28125 21.2812 5.17005 21.2812 7.5C21.2812 9.82995 23.17 11.7188 25.5 11.7188Z" stroke="#F2F2F2" stroke-width="2.8125" stroke-linecap="round" stroke-linejoin="round"/>
<path d="M14.25 13.125L21.75 9.375M14.25 16.875L21.75 20.625L14.25 16.875Z" stroke="#F2F2F2" stroke-width="2.8125" stroke-linecap="round" stroke-linejoin="round"/>
</g>
<defs>
<filter id="filter0_d_122_496" x="-1" y="0" width="38" height="38" filterUnits="userSpaceOnUse" color-interpolation-filters="sRGB">
<feFlood flood-opacity="0" result="BackgroundImageFix"/>
<feColorMatrix in="SourceAlpha" type="matrix" values="0 0 0 0 0 0 0 0 0 0 0 0 0 0 0 0 0 0 127 0" result="hardAlpha"/>
<feOffset dy="4"/>
<feGaussianBlur stdDeviation="2"/>
<feComposite in2="hardAlpha" operator="out"/>
<feColorMatrix type="matrix" values="0 0 0 0 0 0 0 0 0 0 0 0 0 0 0 0 0 0 0.25 0"/>
<feBlend mode="normal" in2="BackgroundImageFix" result="effect1_dropShadow_122_496"/>
<feBlend mode="normal" in="SourceGraphic" in2="effect1_dropShadow_122_496" result="shape"/>
</filter>
</defs>
</svg>