<svg width="34" height="35" viewBox="0 0 34 35" fill="none" xmlns="http://www.w3.org/2000/svg">
<g filter="url(#filter0_d_122_502)">
<path d="M22.625 3.75C20.45 3.75 18.3625 4.7625 17 6.3625C15.6375 4.7625 13.55 3.75 11.375 3.75C7.525 3.75 4.5 6.775 4.5 10.625C4.5 15.35 8.75 19.2 15.1875 25.05L17 26.6875L18.8125 25.0375C25.25 19.2 29.5 15.35 29.5 10.625C29.5 6.775 26.475 3.75 22.625 3.75ZM17.125 23.1875L17 23.3125L16.875 23.1875C10.925 17.8 7 14.2375 7 10.625C7 8.125 8.875 6.25 11.375 6.25C13.3 6.25 15.175 7.4875 15.8375 9.2H18.175C18.825 7.4875 20.7 6.25 22.625 6.25C25.125 6.25 27 8.125 27 10.625C27 14.2375 23.075 17.8 17.125 23.1875Z" fill="#FF0886"/>
</g>
<defs>
<filter id="filter0_d_122_502" x="-2" y="0" width="38" height="38" filterUnits="userSpaceOnUse" color-interpolation-filters="sRGB">
<feFlood flood-opacity="0" result="BackgroundImageFix"/>
<feColorMatrix in="SourceAlpha" type="matrix" values="0 0 0 0 0 0 0 0 0 0 0 0 0 0 0 0 0 0 127 0" result="hardAlpha"/>
<feOffset dy="4"/>
<feGaussianBlur stdDeviation="2"/>
<feComposite in2="hardAlpha" operator="out"/>
<feColorMatrix type="matrix" values="0 0 0 0 0 0 0 0 0 0 0 0 0 0 0 0 0 0 0.25 0"/>
<feBlend mode="normal" in2="BackgroundImageFix" result="effect1_dropShadow_122_502"/>
<feBlend mode="normal" in="SourceGraphic" in2="effect1_dropShadow_122_502" result="shape"/>
</filter>
</defs>
</svg>
